<svg width="70" height="68" viewBox="0 0 70 68" fill="none" xmlns="http://www.w3.org/2000/svg">
<path d="M13.6307 7.72727C13.6307 9.31345 13.33 10.6629 12.7287 11.7756C12.1321 12.8883 11.3177 13.7382 10.2855 14.3253C9.25805 14.9077 8.10275 15.1989 6.8196 15.1989C5.52699 15.1989 4.36695 14.9053 3.33949 14.3182C2.31203 13.7311 1.5 12.8812 0.903409 11.7685C0.306818 10.6558 0.00852273 9.30871 0.00852273 7.72727C0.00852273 6.1411 0.306818 4.79167 0.903409 3.67898C1.5 2.56629 2.31203 1.71875 3.33949 1.13636C4.36695 0.549242 5.52699 0.255681 6.8196 0.255681C8.10275 0.255681 9.25805 0.549242 10.2855 1.13636C11.3177 1.71875 12.1321 2.56629 12.7287 3.67898C13.33 4.79167 13.6307 6.1411 13.6307 7.72727ZM10.5128 7.72727C10.5128 6.69981 10.3589 5.83333 10.0511 5.12784C9.74811 4.42235 9.3196 3.88731 8.76562 3.52273C8.21165 3.15814 7.56297 2.97585 6.8196 2.97585C6.07623 2.97585 5.42756 3.15814 4.87358 3.52273C4.3196 3.88731 3.88873 4.42235 3.58097 5.12784C3.27794 5.83333 3.12642 6.69981 3.12642 7.72727C3.12642 8.75473 3.27794 9.62121 3.58097 10.3267C3.88873 11.0322 4.3196 11.5672 4.87358 11.9318C5.42756 12.2964 6.07623 12.4787 6.8196 12.4787C7.56297 12.4787 8.21165 12.2964 8.76562 11.9318C9.3196 11.5672 9.74811 11.0322 10.0511 10.3267C10.3589 9.62121 10.5128 8.75473 10.5128 7.72727ZM18.8775 8.69318V15H15.8519V4.09091H18.7354V6.01562H18.8633C19.1048 5.38116 19.5096 4.87926 20.0778 4.50994C20.646 4.13589 21.3349 3.94886 22.1445 3.94886C22.9021 3.94886 23.5626 4.11458 24.1261 4.44602C24.6895 4.77746 25.1275 5.25095 25.44 5.86648C25.7525 6.47727 25.9087 7.20644 25.9087 8.05398V15H22.8832V8.59375C22.8879 7.92614 22.7174 7.4053 22.3718 7.03125C22.0262 6.65246 21.5503 6.46307 20.9442 6.46307C20.5371 6.46307 20.1772 6.55066 19.8647 6.72585C19.5569 6.90104 19.3155 7.15672 19.1403 7.4929C18.9698 7.82434 18.8822 8.22443 18.8775 8.69318ZM33.2223 15.2131C32.1049 15.2131 31.1437 14.9763 30.3388 14.5028C29.5386 14.0246 28.9231 13.3617 28.4922 12.5142C28.0661 11.6667 27.853 10.6913 27.853 9.58807C27.853 8.47064 28.0684 7.49053 28.4993 6.64773C28.9349 5.80019 29.5528 5.13968 30.353 4.66619C31.1532 4.18797 32.1049 3.94886 33.2081 3.94886C34.1598 3.94886 34.9931 4.12169 35.7081 4.46733C36.4231 4.81297 36.9889 5.2983 37.4055 5.9233C37.8222 6.5483 38.0518 7.2822 38.0945 8.125H35.2393C35.1589 7.58049 34.9458 7.14252 34.6001 6.81108C34.2592 6.47491 33.8118 6.30682 33.2578 6.30682C32.7891 6.30682 32.3795 6.43466 32.0291 6.69034C31.6835 6.94129 31.4136 7.30824 31.2195 7.79119C31.0253 8.27415 30.9283 8.8589 30.9283 9.54545C30.9283 10.2415 31.023 10.8333 31.2124 11.321C31.4065 11.8087 31.6787 12.1804 32.0291 12.4361C32.3795 12.6918 32.7891 12.8196 33.2578 12.8196C33.6035 12.8196 33.9136 12.7486 34.1882 12.6065C34.4676 12.4645 34.6972 12.2585 34.8771 11.9886C35.0618 11.714 35.1825 11.3849 35.2393 11.0014H38.0945C38.0471 11.8348 37.8198 12.5687 37.4126 13.2031C37.0102 13.8329 36.4538 14.3253 35.7436 14.6804C35.0334 15.0355 34.1929 15.2131 33.2223 15.2131ZM45.0032 15.2131C43.881 15.2131 42.9151 14.9858 42.1055 14.5312C41.3005 14.072 40.6803 13.4233 40.2447 12.5852C39.8091 11.7424 39.5913 10.7457 39.5913 9.59517C39.5913 8.47301 39.8091 7.48816 40.2447 6.64062C40.6803 5.79309 41.2934 5.13258 42.0842 4.65909C42.8796 4.18561 43.8124 3.94886 44.8825 3.94886C45.6022 3.94886 46.2721 4.06487 46.8924 4.29688C47.5174 4.52415 48.0619 4.86742 48.5259 5.3267C48.9947 5.78598 49.3593 6.36364 49.6197 7.05966C49.8801 7.75095 50.0103 8.56061 50.0103 9.48864V10.3196H40.7987V8.4446H47.1623C47.1623 8.009 47.0676 7.62311 46.8782 7.28693C46.6888 6.95076 46.426 6.68797 46.0898 6.49858C45.7584 6.30445 45.3725 6.20739 44.9322 6.20739C44.4729 6.20739 44.0657 6.31392 43.7106 6.52699C43.3602 6.73532 43.0856 7.01705 42.8867 7.37216C42.6879 7.72254 42.5861 8.11316 42.5813 8.54403V10.3267C42.5813 10.8665 42.6808 11.3329 42.8796 11.7259C43.0832 12.1188 43.3697 12.4219 43.739 12.6349C44.1083 12.848 44.5463 12.9545 45.0529 12.9545C45.3891 12.9545 45.6969 12.9072 45.9762 12.8125C46.2556 12.7178 46.4947 12.5758 46.6935 12.3864C46.8924 12.197 47.0439 11.965 47.1481 11.6903L49.9464 11.875C49.8043 12.5473 49.5131 13.1345 49.0728 13.6364C48.6372 14.1335 48.0737 14.5218 47.3825 14.8011C46.6959 15.0758 45.9028 15.2131 45.0032 15.2131ZM9.24858 24.4545H12.3239V33.9006C12.3239 34.9612 12.0705 35.8892 11.5639 36.6847C11.062 37.4801 10.3589 38.1004 9.45455 38.5455C8.55019 38.9858 7.49669 39.206 6.29403 39.206C5.08665 39.206 4.03078 38.9858 3.12642 38.5455C2.22206 38.1004 1.51894 37.4801 1.01705 36.6847C0.515152 35.8892 0.264205 34.9612 0.264205 33.9006V24.4545H3.33949V33.6378C3.33949 34.1918 3.46023 34.6842 3.7017 35.1151C3.94792 35.5459 4.29356 35.8845 4.73864 36.1307C5.18371 36.3769 5.70218 36.5 6.29403 36.5C6.89063 36.5 7.40909 36.3769 7.84943 36.1307C8.29451 35.8845 8.63778 35.5459 8.87926 35.1151C9.12547 34.6842 9.24858 34.1918 9.24858 33.6378V24.4545ZM14.7972 43.0909V28.0909H17.7802V29.9233H17.9151C18.0477 29.6297 18.2395 29.3314 18.4904 29.0284C18.7461 28.7206 19.0775 28.465 19.4847 28.2614C19.8967 28.053 20.408 27.9489 21.0188 27.9489C21.8143 27.9489 22.5482 28.1572 23.2205 28.5739C23.8929 28.9858 24.4303 29.6084 24.8327 30.4418C25.2352 31.2704 25.4364 32.3097 25.4364 33.5597C25.4364 34.7765 25.2399 35.804 24.8469 36.642C24.4587 37.4754 23.9284 38.1075 23.256 38.5384C22.5884 38.9645 21.8403 39.1776 21.0117 39.1776C20.4246 39.1776 19.9251 39.0805 19.5131 38.8864C19.1059 38.6922 18.7721 38.4484 18.5117 38.1548C18.2513 37.8565 18.0524 37.5559 17.9151 37.2528H17.8228V43.0909H14.7972ZM17.7589 33.5455C17.7589 34.1941 17.8488 34.7599 18.0288 35.2429C18.2087 35.7259 18.4691 36.1023 18.81 36.3722C19.1509 36.6373 19.5652 36.7699 20.0529 36.7699C20.5453 36.7699 20.962 36.6349 21.3029 36.3651C21.6438 36.0904 21.9019 35.7116 22.0771 35.2287C22.257 34.741 22.3469 34.1799 22.3469 33.5455C22.3469 32.9157 22.2594 32.3617 22.0842 31.8835C21.909 31.4053 21.6509 31.0312 21.31 30.7614C20.9691 30.4915 20.5501 30.3565 20.0529 30.3565C19.5605 30.3565 19.1438 30.4867 18.8029 30.7472C18.4667 31.0076 18.2087 31.3769 18.0288 31.8551C17.8488 32.3333 17.7589 32.8968 17.7589 33.5455ZM32.3825 39.2131C31.2792 39.2131 30.3252 38.9787 29.5202 38.5099C28.7201 38.0365 28.1022 37.3783 27.6665 36.5355C27.2309 35.688 27.0131 34.7055 27.0131 33.5881C27.0131 32.4612 27.2309 31.4763 27.6665 30.6335C28.1022 29.786 28.7201 29.1278 29.5202 28.6591C30.3252 28.1856 31.2792 27.9489 32.3825 27.9489C33.4857 27.9489 34.4374 28.1856 35.2376 28.6591C36.0425 29.1278 36.6628 29.786 37.0984 30.6335C37.534 31.4763 37.7518 32.4612 37.7518 33.5881C37.7518 34.7055 37.534 35.688 37.0984 36.5355C36.6628 37.3783 36.0425 38.0365 35.2376 38.5099C34.4374 38.9787 33.4857 39.2131 32.3825 39.2131ZM32.3967 36.8693C32.8986 36.8693 33.3176 36.7273 33.6538 36.4432C33.9899 36.1544 34.2433 35.7614 34.4137 35.2642C34.5889 34.767 34.6765 34.2012 34.6765 33.5668C34.6765 32.9323 34.5889 32.3665 34.4137 31.8693C34.2433 31.3722 33.9899 30.9792 33.6538 30.6903C33.3176 30.4015 32.8986 30.2571 32.3967 30.2571C31.89 30.2571 31.4639 30.4015 31.1183 30.6903C30.7773 30.9792 30.5193 31.3722 30.3441 31.8693C30.1737 32.3665 30.0884 32.9323 30.0884 33.5668C30.0884 34.2012 30.1737 34.767 30.3441 35.2642C30.5193 35.7614 30.7773 36.1544 31.1183 36.4432C31.4639 36.7273 31.89 36.8693 32.3967 36.8693ZM42.7447 32.6932V39H39.7191V28.0909H42.6026V30.0156H42.7305C42.9719 29.3812 43.3768 28.8793 43.945 28.5099C44.5131 28.1359 45.2021 27.9489 46.0117 27.9489C46.7693 27.9489 47.4298 28.1146 47.9933 28.446C48.5567 28.7775 48.9947 29.2509 49.3072 29.8665C49.6197 30.4773 49.7759 31.2064 49.7759 32.054V39H46.7504V32.5938C46.7551 31.9261 46.5846 31.4053 46.239 31.0312C45.8933 30.6525 45.4175 30.4631 44.8114 30.4631C44.4042 30.4631 44.0444 30.5507 43.7319 30.7259C43.4241 30.901 43.1826 31.1567 43.0075 31.4929C42.837 31.8243 42.7494 32.2244 42.7447 32.6932ZM59.9002 39.206C59.2042 39.206 58.5839 39.0852 58.0394 38.8438C57.4949 38.5975 57.064 38.2353 56.7468 37.7571C56.4343 37.2741 56.2781 36.6728 56.2781 35.9531C56.2781 35.3471 56.3893 34.8381 56.6119 34.4261C56.8344 34.0142 57.1374 33.6828 57.521 33.4318C57.9045 33.1809 58.3401 32.9915 58.8278 32.8636C59.3202 32.7358 59.8363 32.6458 60.3761 32.5938C61.0105 32.5275 61.5219 32.4659 61.9102 32.4091C62.2984 32.3475 62.5801 32.2576 62.7553 32.1392C62.9305 32.0208 63.0181 31.8456 63.0181 31.6136V31.571C63.0181 31.1212 62.8761 30.7732 62.592 30.527C62.3126 30.2808 61.9149 30.1577 61.3988 30.1577C60.8543 30.1577 60.421 30.2784 60.0991 30.5199C59.7771 30.7566 59.564 31.0549 59.4599 31.4148L56.6616 31.1875C56.8036 30.5246 57.083 29.9517 57.4996 29.4688C57.9163 28.9811 58.4537 28.607 59.1119 28.3466C59.7747 28.0814 60.5418 27.9489 61.413 27.9489C62.0191 27.9489 62.5991 28.0199 63.1531 28.1619C63.7118 28.304 64.2066 28.5241 64.6374 28.8224C65.073 29.1207 65.4163 29.5043 65.6673 29.973C65.9182 30.437 66.0437 30.9934 66.0437 31.642V39H63.1744V37.4872H63.0891C62.9139 37.8281 62.6796 38.1288 62.386 38.3892C62.0924 38.6449 61.7397 38.8461 61.3278 38.9929C60.9158 39.1349 60.44 39.206 59.9002 39.206ZM60.7667 37.1179C61.2118 37.1179 61.6048 37.0303 61.9457 36.8551C62.2866 36.6752 62.5541 36.4337 62.7482 36.1307C62.9424 35.8277 63.0394 35.4844 63.0394 35.1009V33.9432C62.9447 34.0047 62.8145 34.0616 62.6488 34.1136C62.4878 34.161 62.3055 34.206 62.1019 34.2486C61.8983 34.2865 61.6947 34.322 61.4911 34.3551C61.2875 34.3835 61.1029 34.4096 60.9371 34.4332C60.582 34.4853 60.2719 34.5682 60.0067 34.6818C59.7416 34.7955 59.5356 34.9493 59.3888 35.1435C59.2421 35.3329 59.1687 35.5696 59.1687 35.8537C59.1687 36.2656 59.3178 36.5805 59.6161 36.7983C59.9192 37.0114 60.3027 37.1179 60.7667 37.1179ZM0.264205 63V48.4545H6.08807C7.15814 48.4545 8.05066 48.6132 8.76562 48.9304C9.48059 49.2476 10.018 49.688 10.3778 50.2514C10.7377 50.8101 10.9176 51.4541 10.9176 52.1832C10.9176 52.7514 10.804 53.2509 10.5767 53.6818C10.3494 54.108 10.0369 54.4583 9.6392 54.733C9.24621 55.0028 8.7964 55.1946 8.28977 55.3082V55.4503C8.84375 55.474 9.36222 55.6302 9.84517 55.919C10.3329 56.2079 10.7282 56.6127 11.0312 57.1335C11.3343 57.6496 11.4858 58.2652 11.4858 58.9801C11.4858 59.7519 11.294 60.4408 10.9105 61.0469C10.5317 61.6482 9.97064 62.1241 9.22727 62.4744C8.4839 62.8248 7.56771 63 6.47869 63H0.264205ZM3.33949 60.4858H5.84659C6.7036 60.4858 7.3286 60.3224 7.72159 59.9957C8.11458 59.6643 8.31108 59.224 8.31108 58.6747C8.31108 58.2723 8.21402 57.9171 8.01989 57.6094C7.82576 57.3016 7.54877 57.0601 7.18892 56.8849C6.83381 56.7098 6.41004 56.6222 5.91761 56.6222H3.33949V60.4858ZM3.33949 54.5412H5.61932C6.04072 54.5412 6.41477 54.4678 6.74148 54.321C7.07292 54.1695 7.33333 53.9564 7.52273 53.6818C7.71686 53.4072 7.81392 53.0781 7.81392 52.6946C7.81392 52.169 7.62689 51.7453 7.25284 51.4233C6.88352 51.1013 6.35795 50.9403 5.67614 50.9403H3.33949V54.5412ZM20.4258 58.3551V52.0909H23.4513V63H20.5465V61.0185H20.4329C20.1867 61.6577 19.7771 62.1714 19.2042 62.5597C18.636 62.9479 17.9424 63.142 17.1232 63.142C16.3941 63.142 15.7525 62.9763 15.1985 62.6449C14.6445 62.3134 14.2113 61.8423 13.8988 61.2315C13.591 60.6207 13.4348 59.8892 13.43 59.0369V52.0909H16.4556V58.4972C16.4603 59.1411 16.6332 59.6501 16.9741 60.0241C17.315 60.3982 17.7719 60.5852 18.3448 60.5852C18.7094 60.5852 19.0503 60.5024 19.3675 60.3366C19.6848 60.1662 19.9405 59.9152 20.1346 59.5838C20.3335 59.2524 20.4305 58.8428 20.4258 58.3551ZM29.8913 63.1776C29.0627 63.1776 28.3123 62.9645 27.6399 62.5384C26.9723 62.1075 26.442 61.4754 26.049 60.642C25.6607 59.804 25.4666 58.7765 25.4666 57.5597C25.4666 56.3097 25.6679 55.2704 26.0703 54.4418C26.4728 53.6084 27.0078 52.9858 27.6754 52.5739C28.3478 52.1572 29.084 51.9489 29.8842 51.9489C30.495 51.9489 31.004 52.053 31.4112 52.2614C31.8232 52.465 32.1546 52.7206 32.4055 53.0284C32.6612 53.3314 32.8554 53.6297 32.9879 53.9233H33.0803V48.4545H36.0987V63H33.1158V61.2528H32.9879C32.8459 61.5559 32.6446 61.8565 32.3842 62.1548C32.1286 62.4484 31.7947 62.6922 31.3828 62.8864C30.9756 63.0805 30.4785 63.1776 29.8913 63.1776ZM30.8501 60.7699C31.3378 60.7699 31.7498 60.6373 32.0859 60.3722C32.4268 60.1023 32.6873 59.7259 32.8672 59.2429C33.0518 58.7599 33.1442 58.1941 33.1442 57.5455C33.1442 56.8968 33.0542 56.3333 32.8743 55.8551C32.6944 55.3769 32.4339 55.0076 32.093 54.7472C31.7521 54.4867 31.3378 54.3565 30.8501 54.3565C30.353 54.3565 29.9339 54.4915 29.593 54.7614C29.2521 55.0312 28.9941 55.4053 28.8189 55.8835C28.6437 56.3617 28.5561 56.9157 28.5561 57.5455C28.5561 58.1799 28.6437 58.741 28.8189 59.2287C28.9988 59.7116 29.2569 60.0904 29.593 60.3651C29.9339 60.6349 30.353 60.7699 30.8501 60.7699ZM43.5011 67.3182C42.521 67.3182 41.6805 67.1832 40.9798 66.9134C40.2837 66.6482 39.7298 66.286 39.3178 65.8267C38.9059 65.3674 38.6384 64.8513 38.5153 64.2784L41.3136 63.902C41.3988 64.1198 41.5337 64.3234 41.7184 64.5128C41.9031 64.7022 42.1469 64.8537 42.4499 64.9673C42.7577 65.0857 43.1317 65.1449 43.5721 65.1449C44.2302 65.1449 44.7724 64.9839 45.1985 64.6619C45.6294 64.3447 45.8448 63.812 45.8448 63.0639V61.0682H45.717C45.5844 61.3712 45.3855 61.6577 45.1204 61.9276C44.8552 62.1974 44.5143 62.4176 44.0977 62.5881C43.681 62.7585 43.1838 62.8438 42.6062 62.8438C41.7871 62.8438 41.0413 62.6544 40.369 62.2756C39.7013 61.892 39.1687 61.3073 38.771 60.5213C38.378 59.7306 38.1815 58.7315 38.1815 57.5241C38.1815 56.2884 38.3827 55.2562 38.7852 54.4276C39.1876 53.599 39.7227 52.9787 40.3903 52.5668C41.0626 52.1548 41.7989 51.9489 42.5991 51.9489C43.2099 51.9489 43.7212 52.053 44.1332 52.2614C44.5451 52.465 44.8765 52.7206 45.1275 53.0284C45.3832 53.3314 45.5797 53.6297 45.717 53.9233H45.8306V52.0909H48.8349V63.1065C48.8349 64.0346 48.6076 64.8111 48.1531 65.4361C47.6985 66.0611 47.0688 66.5298 46.2638 66.8423C45.4637 67.1596 44.5427 67.3182 43.5011 67.3182ZM43.565 60.571C44.0527 60.571 44.4646 60.4503 44.8008 60.2088C45.1417 59.9626 45.4021 59.6122 45.582 59.1577C45.7667 58.6984 45.859 58.1491 45.859 57.5099C45.859 56.8707 45.7691 56.3168 45.5891 55.848C45.4092 55.3745 45.1488 55.0076 44.8079 54.7472C44.467 54.4867 44.0527 54.3565 43.565 54.3565C43.0678 54.3565 42.6488 54.4915 42.3079 54.7614C41.967 55.0265 41.7089 55.3958 41.5337 55.8693C41.3585 56.3428 41.271 56.8897 41.271 57.5099C41.271 58.1397 41.3585 58.6842 41.5337 59.1435C41.7137 59.598 41.9717 59.9508 42.3079 60.2017C42.6488 60.4479 43.0678 60.571 43.565 60.571ZM56.2141 63.2131C55.092 63.2131 54.1261 62.9858 53.3164 62.5312C52.5115 62.072 51.8912 61.4233 51.4556 60.5852C51.02 59.7424 50.8022 58.7457 50.8022 57.5952C50.8022 56.473 51.02 55.4882 51.4556 54.6406C51.8912 53.7931 52.5044 53.1326 53.2951 52.6591C54.0906 52.1856 55.0233 51.9489 56.0934 51.9489C56.8131 51.9489 57.4831 52.0649 58.1033 52.2969C58.7283 52.5241 59.2728 52.8674 59.7369 53.3267C60.2056 53.786 60.5702 54.3636 60.8306 55.0597C61.091 55.7509 61.2212 56.5606 61.2212 57.4886V58.3196H52.0096V56.4446H58.3732C58.3732 56.009 58.2785 55.6231 58.0891 55.2869C57.8997 54.9508 57.637 54.688 57.3008 54.4986C56.9693 54.3045 56.5835 54.2074 56.1431 54.2074C55.6838 54.2074 55.2766 54.3139 54.9215 54.527C54.5711 54.7353 54.2965 55.017 54.0977 55.3722C53.8988 55.7225 53.797 56.1132 53.7923 56.544V58.3267C53.7923 58.8665 53.8917 59.3329 54.0906 59.7259C54.2942 60.1188 54.5806 60.4219 54.9499 60.6349C55.3192 60.848 55.7572 60.9545 56.2638 60.9545C56.6 60.9545 56.9078 60.9072 57.1871 60.8125C57.4665 60.7178 57.7056 60.5758 57.9045 60.3864C58.1033 60.197 58.2549 59.965 58.359 59.6903L61.1573 59.875C61.0153 60.5473 60.7241 61.1345 60.2837 61.6364C59.8481 62.1335 59.2847 62.5218 58.5934 62.8011C57.9068 63.0758 57.1138 63.2131 56.2141 63.2131ZM68.9982 52.0909V54.3636H62.4286V52.0909H68.9982ZM63.9201 49.4773H66.9457V59.6477C66.9457 59.9271 66.9883 60.1449 67.0735 60.3011C67.1587 60.4527 67.2771 60.5592 67.4286 60.6207C67.5849 60.6823 67.7648 60.7131 67.9684 60.7131C68.1104 60.7131 68.2525 60.7012 68.3945 60.6776C68.5366 60.6491 68.6455 60.6278 68.7212 60.6136L69.1971 62.8651C69.0456 62.9124 68.8325 62.9669 68.5579 63.0284C68.2833 63.0947 67.9495 63.1349 67.5565 63.1491C66.8273 63.1776 66.1881 63.0805 65.6388 62.858C65.0943 62.6354 64.6706 62.2898 64.3675 61.821C64.0645 61.3523 63.9154 60.7604 63.9201 60.0455V49.4773Z" fill="black"/>
</svg>
